<?xml version="1.0" encoding="utf-8"?>
<!-- Generator: Adobe Illustrator 27.8.1, SVG Export Plug-In . SVG Version: 6.00 Build 0)  -->
<svg version="1.1" id="Layer_2" xmlns="http://www.w3.org/2000/svg" xmlns:xlink="http://www.w3.org/1999/xlink" x="0px" y="0px"
	 viewBox="0 0 512 512" style="enable-background:new 0 0 512 512;" xml:space="preserve">
<style type="text/css">
	.st0{fill:url(#SVGID_1_);}
	.st1{fill:url(#SVGID_00000003806953128981211710000010604494801610004877_);}
	.st2{fill:url(#SVGID_00000138534652836814865550000015513145662374071175_);}
	.st3{fill:#FFFFFF;}
	.st4{fill:url(#SVGID_00000178891249291936294170000017599752083928133535_);}
	.st5{fill:url(#SVGID_00000099624116082093634780000002130301463185760680_);}
	.st6{fill:url(#SVGID_00000159460032060823389730000000515703250918618502_);}
	.st7{fill:url(#SVGID_00000021835272673548630180000003746360465168387750_);}
	.st8{fill:url(#SVGID_00000008841417857545760810000015183692108847128232_);}
	
		.st9{fill:url(#SVGID_00000036216766700710711660000006010378259165164950_);stroke:url(#SVGID_00000057135321266455722670000016196693940672554887_);stroke-miterlimit:10;}
	.st10{fill:url(#SVGID_00000006671298426127412530000003354577712219538314_);}
	.st11{fill:url(#SVGID_00000019663290019837682370000004612082602279049916_);}
	.st12{fill:url(#SVGID_00000027569226305715931490000007753892242520527007_);}
	.st13{fill:url(#SVGID_00000158006836777100829930000014279642698594133424_);}
	.st14{fill:url(#SVGID_00000034788272653732579960000016974155572991256201_);}
	.st15{fill:url(#SVGID_00000160886399886325602350000012757927620993370543_);}
</style>
<g>
	<linearGradient id="SVGID_1_" gradientUnits="userSpaceOnUse" x1="256" y1="1.109584e-10" x2="256" y2="512">
		<stop  offset="0" style="stop-color:#CFD4E2"/>
		<stop  offset="1" style="stop-color:#A9B4CC"/>
	</linearGradient>
	<path class="st0" d="M420.1,512H91.9C41.3,512,0,470.7,0,420.1V91.9C0,41.3,41.3,0,91.9,0h328.2C470.7,0,512,41.3,512,91.9v328.2
		C512,470.7,470.7,512,420.1,512z"/>
	
		<radialGradient id="SVGID_00000080892890122459656140000004003202712423285181_" cx="255.006" cy="259.5827" r="227.9617" gradientTransform="matrix(1.006 0 0 1.0202 -1.5341 -5.0938)" gradientUnits="userSpaceOnUse">
		<stop  offset="0.96" style="stop-color:#000000;stop-opacity:0.7"/>
		<stop  offset="1" style="stop-color:#000000;stop-opacity:0"/>
	</radialGradient>
	<path style="fill:url(#SVGID_00000080892890122459656140000004003202712423285181_);" d="M487.3,259.1c0,129-104,234.9-232.3,234.9
		S22.7,388.1,22.7,259.1S126.7,25.5,255,25.5S487.3,130.1,487.3,259.1z"/>
	
		<linearGradient id="SVGID_00000088836898082065010640000018020030158233795000_" gradientUnits="userSpaceOnUse" x1="255" y1="31.7054" x2="255" y2="479.2018">
		<stop  offset="0" style="stop-color:#F7F8FA"/>
		<stop  offset="1" style="stop-color:#A5B1D4"/>
	</linearGradient>
	<circle style="fill:url(#SVGID_00000088836898082065010640000018020030158233795000_);" cx="255" cy="255.5" r="223.7"/>
	<circle class="st3" cx="255" cy="255.5" r="207.5"/>
	
		<linearGradient id="SVGID_00000069371419516710993290000014674188358113625238_" gradientUnits="userSpaceOnUse" x1="255" y1="64.2809" x2="255" y2="446.6263">
		<stop  offset="0" style="stop-color:#4A7DEE"/>
		<stop  offset="1" style="stop-color:#D6E7FD"/>
	</linearGradient>
	<circle style="fill:url(#SVGID_00000069371419516710993290000014674188358113625238_);" cx="255" cy="255.5" r="191.2"/>
	
		<linearGradient id="SVGID_00000065064387537909975690000008168498501573575072_" gradientUnits="userSpaceOnUse" x1="255" y1="78.3427" x2="255" y2="432.5645">
		<stop  offset="0" style="stop-color:#1052FA"/>
		<stop  offset="1" style="stop-color:#03A2FF"/>
	</linearGradient>
	<circle style="fill:url(#SVGID_00000065064387537909975690000008168498501573575072_);" cx="255" cy="255.5" r="177.1"/>
	
		<radialGradient id="SVGID_00000033342088705839663170000005065284211989201043_" cx="255" cy="259.6645" r="177.5771" gradientTransform="matrix(1 0 0 1.0099 0 -2.5659)" gradientUnits="userSpaceOnUse">
		<stop  offset="0.2827" style="stop-color:#000000;stop-opacity:0"/>
		<stop  offset="0.94" style="stop-color:#000000;stop-opacity:0"/>
		<stop  offset="1" style="stop-color:#00001E;stop-opacity:0.6"/>
	</radialGradient>
	<circle style="fill:url(#SVGID_00000033342088705839663170000005065284211989201043_);" cx="255" cy="255.5" r="177.1"/>
	
		<radialGradient id="SVGID_00000035526984743727634550000013253980538971136412_" cx="254.9778" cy="255.7856" r="139.7306" gradientTransform="matrix(0.9782 0 0 0.9837 5.5688 6.0985)" gradientUnits="userSpaceOnUse">
		<stop  offset="0.96" style="stop-color:#000000;stop-opacity:0.4"/>
		<stop  offset="1" style="stop-color:#000000;stop-opacity:0"/>
	</radialGradient>
	
		<ellipse style="fill:url(#SVGID_00000035526984743727634550000013253980538971136412_);" cx="255" cy="257.7" rx="136.7" ry="137.5"/>
	<g>
		
			<linearGradient id="SVGID_00000150796304906679271230000000770736055720491697_" gradientUnits="userSpaceOnUse" x1="255" y1="120.2667" x2="255" y2="390.6405">
			<stop  offset="0" style="stop-color:#FBF6F6"/>
			<stop  offset="1" style="stop-color:#D4DFF6"/>
		</linearGradient>
		<circle style="fill:url(#SVGID_00000150796304906679271230000000770736055720491697_);" cx="255" cy="255.5" r="135.2"/>
	</g>
	
		<radialGradient id="SVGID_00000019660750539865065670000003955002333269141426_" cx="255.3853" cy="299.8408" r="111.8273" fx="255.3853" fy="318.9533" gradientUnits="userSpaceOnUse">
		<stop  offset="0.3659" style="stop-color:#E6E9FA"/>
		<stop  offset="0.5491" style="stop-color:#E3E7F9"/>
		<stop  offset="0.6816" style="stop-color:#DADFF4"/>
		<stop  offset="0.7983" style="stop-color:#CAD2EC"/>
		<stop  offset="0.905" style="stop-color:#B4C0E1"/>
		<stop  offset="1" style="stop-color:#99AAD4"/>
	</radialGradient>
	
		<linearGradient id="SVGID_00000030477569789705423270000000820441070347519890_" gradientUnits="userSpaceOnUse" x1="255" y1="323.7591" x2="255" y2="187.1481">
		<stop  offset="0" style="stop-color:#F2F2F2"/>
		<stop  offset="1" style="stop-color:#9BA6CE"/>
	</linearGradient>
	
		<circle style="fill:url(#SVGID_00000019660750539865065670000003955002333269141426_);stroke:url(#SVGID_00000030477569789705423270000000820441070347519890_);stroke-miterlimit:10;" cx="255" cy="255.5" r="67.8"/>
	<g>
		
			<linearGradient id="SVGID_00000060022293084610081460000017109631303786632858_" gradientUnits="userSpaceOnUse" x1="255.0003" y1="323.8614" x2="255.0003" y2="187.0463">
			<stop  offset="0" style="stop-color:#E6E9FA"/>
			<stop  offset="1" style="stop-color:#99AAD4"/>
		</linearGradient>
		<path style="fill:url(#SVGID_00000060022293084610081460000017109631303786632858_);" d="M255,323.9c-37.7,0-68.4-30.7-68.4-68.4
			c0-37.7,30.7-68.4,68.4-68.4c37.7,0,68.4,30.7,68.4,68.4C323.4,293.2,292.7,323.9,255,323.9z M255,188.2
			c-37.1,0-67.2,30.1-67.2,67.2s30.1,67.2,67.2,67.2s67.2-30.1,67.2-67.2S292.1,188.2,255,188.2z"/>
	</g>
	
		<linearGradient id="SVGID_00000043443407870630449420000003935611237313607865_" gradientUnits="userSpaceOnUse" x1="255.2881" y1="350.8774" x2="255.2881" y2="159.9432">
		<stop  offset="0" style="stop-color:#191D37"/>
		<stop  offset="1" style="stop-color:#0A0D1B"/>
	</linearGradient>
	<path style="fill:url(#SVGID_00000043443407870630449420000003935611237313607865_);" d="M272.5,350.9h-34.4c-7.2,0-13-5.9-13-13
		V246c0-1.2,0.6-2.4,1.6-3.2l10.1-7.4c2.1-1.5,2.1-4.6,0.1-6.2l-10.4-8.2c-0.9-0.7-1.5-1.9-1.5-3.1v-45c0-7.2,5.9-13,13-13h34.4
		c7.2,0,13,5.9,13,13v92c0,1.2-0.5,2.3-1.5,3.1l-10.6,8.3c-2,1.6-2,4.5-0.1,6.1l10.7,8.7c0.9,0.7,1.4,1.9,1.4,3v43.5
		C285.5,345,279.6,350.9,272.5,350.9z"/>
	
		<linearGradient id="SVGID_00000124847186351877336530000004144667077095366310_" gradientUnits="userSpaceOnUse" x1="15.6569" y1="255.4536" x2="15.6569" y2="249.7905">
		<stop  offset="0" style="stop-color:#000000;stop-opacity:0.4"/>
		<stop  offset="0.933" style="stop-color:#000000;stop-opacity:0"/>
	</linearGradient>
	<path style="fill:url(#SVGID_00000124847186351877336530000004144667077095366310_);" d="M0,250.6v4.9h31.3c0-1.6,0-3.3,0.1-4.9H0z
		"/>
	
		<linearGradient id="SVGID_00000096743138351438000510000017129655145029114014_" gradientUnits="userSpaceOnUse" x1="15.6569" y1="260.3536" x2="15.6569" y2="254.6487">
		<stop  offset="5.326722e-02" style="stop-color:#FFFFFF;stop-opacity:0"/>
		<stop  offset="1" style="stop-color:#FFFFFF;stop-opacity:0.5"/>
	</linearGradient>
	<path style="fill:url(#SVGID_00000096743138351438000510000017129655145029114014_);" d="M31.3,255.5H0v4.9h31.3
		C31.3,258.7,31.3,257.1,31.3,255.5z"/>
	
		<linearGradient id="SVGID_00000071543710920805015200000000421061880900545470_" gradientUnits="userSpaceOnUse" x1="-159.9804" y1="255.4536" x2="-159.9804" y2="249.7905" gradientTransform="matrix(-1 0 0 1 335.3627 0)">
		<stop  offset="0" style="stop-color:#000000;stop-opacity:0.4"/>
		<stop  offset="0.933" style="stop-color:#000000;stop-opacity:0"/>
	</linearGradient>
	<path style="fill:url(#SVGID_00000071543710920805015200000000421061880900545470_);" d="M512,250.6v4.9h-33.3c0-1.6,0-3.3-0.1-4.9
		H512z"/>
	
		<linearGradient id="SVGID_00000109007114612485663690000009752698984711783319_" gradientUnits="userSpaceOnUse" x1="-159.9804" y1="260.3536" x2="-159.9804" y2="254.6487" gradientTransform="matrix(-1 0 0 1 335.3627 0)">
		<stop  offset="5.326722e-02" style="stop-color:#FFFFFF;stop-opacity:0"/>
		<stop  offset="1" style="stop-color:#FFFFFF;stop-opacity:0.5"/>
	</linearGradient>
	<path style="fill:url(#SVGID_00000109007114612485663690000009752698984711783319_);" d="M478.7,255.5H512v4.9h-33.3
		C478.7,258.7,478.7,257.1,478.7,255.5z"/>
</g>
</svg>
