<svg id="svg" version="1.1" xmlns="http://www.w3.org/2000/svg" xmlns:xlink="http://www.w3.org/1999/xlink" width="400" height="400" viewBox="0, 0, 400,400"><g id="svgg"><path id="path0" d="M192.969 62.129 C 166.313 65.446,144.986 82.011,135.404 106.839 C 131.551 116.821,130.859 122.586,130.859 144.690 L 130.859 161.996 124.121 162.228 C 109.774 162.722,101.534 168.166,97.392 179.887 L 96.289 183.008 96.289 212.500 C 96.289 244.627,96.320 245.189,98.680 255.800 C 106.554 291.204,132.819 320.651,166.797 332.167 C 231.759 354.186,299.308 308.465,303.929 239.348 C 304.616 229.064,304.226 183.969,303.427 181.340 C 299.759 169.274,290.582 162.500,277.902 162.500 C 275.292 162.500,272.340 162.388,271.344 162.252 L 269.531 162.003 269.531 145.496 C 269.531 124.450,269.045 119.538,266.015 109.961 C 256.281 79.201,224.262 58.235,192.969 62.129 M208.506 86.175 C 224.743 89.052,238.869 101.558,243.902 117.511 C 245.925 123.922,246.094 126.025,246.094 144.778 L 246.094 162.109 200.195 162.109 L 154.297 162.109 154.297 144.778 C 154.297 131.170,154.422 126.728,154.879 124.105 C 159.359 98.415,183.044 81.663,208.506 86.175 M205.608 208.041 C 221.850 212.228,227.306 232.289,215.584 244.724 C 211.360 249.205,211.229 249.699,211.947 258.491 C 212.664 267.265,212.636 268.747,211.706 271.234 C 207.724 281.877,192.667 281.877,188.685 271.234 C 187.755 268.749,187.726 267.264,188.441 258.512 C 189.157 249.757,189.051 249.321,185.217 245.183 C 169.676 228.408,183.926 202.451,205.608 208.041 " stroke="none" fill="#f4f5f5" fill-rule="evenodd"></path><path id="path1" d="M66.797 0.623 C 32.566 5.597,5.384 32.911,0.611 67.130 C -0.319 73.798,-0.319 326.202,0.611 332.870 C 5.407 367.255,32.745 394.593,67.130 399.389 C 73.798 400.319,326.202 400.319,332.870 399.389 C 367.255 394.593,394.593 367.255,399.389 332.870 C 400.319 326.202,400.319 73.798,399.389 67.130 C 394.594 32.754,367.246 5.406,332.870 0.611 C 326.655 -0.256,72.766 -0.244,66.797 0.623 M213.867 62.875 C 242.701 69.076,264.218 91.674,268.974 120.746 C 269.509 124.020,269.672 128.402,269.817 143.415 L 269.997 162.025 277.088 162.189 C 290.826 162.506,299.614 168.453,303.235 179.883 C 304.318 183.299,304.606 240.179,303.576 247.070 C 294.293 309.180,235.635 349.626,175.882 335.118 C 133.095 324.729,100.732 287.486,96.486 243.750 C 95.586 234.482,96.129 182.694,97.158 179.688 C 101.082 168.215,109.656 162.476,123.302 162.186 L 130.394 162.036 130.573 143.420 C 130.854 114.347,133.453 104.492,144.888 89.152 C 160.417 68.319,188.839 57.491,213.867 62.875 M193.359 86.141 C 175.096 88.991,160.345 102.586,155.829 120.731 C 154.669 125.391,154.310 131.711,154.303 147.559 L 154.297 162.109 200.195 162.109 L 246.094 162.109 246.088 147.559 C 246.081 131.711,245.721 125.391,244.561 120.731 C 238.799 97.577,216.520 82.527,193.359 86.141 M196.618 207.827 C 179.229 210.926,172.807 231.592,185.158 244.704 C 189.237 249.035,189.335 249.395,188.738 257.745 C 187.856 270.076,188.152 271.802,191.772 275.426 C 196.640 280.299,203.750 280.299,208.619 275.426 C 212.239 271.802,212.535 270.076,211.653 257.745 C 211.055 249.395,211.154 249.035,215.233 244.704 C 229.833 229.204,217.192 204.161,196.618 207.827 " stroke="none" fill="#1444b4" fill-rule="evenodd"></path><path id="path2" d="M273.026 307.715 L 271.680 309.180 273.145 307.834 C 273.950 307.093,274.609 306.434,274.609 306.369 C 274.609 306.070,274.279 306.351,273.026 307.715 " stroke="none" fill="#6884c7" fill-rule="evenodd"></path><path id="path3" d="M150.952 82.129 L 149.805 83.398 151.074 82.251 C 152.258 81.182,152.523 80.859,152.222 80.859 C 152.154 80.859,151.583 81.431,150.952 82.129 M130.647 146.289 C 130.647 155.098,130.698 158.757,130.761 154.421 C 130.824 150.084,130.824 142.877,130.761 138.405 C 130.699 133.933,130.647 137.480,130.647 146.289 M269.706 149.609 C 269.706 156.592,269.759 159.448,269.824 155.957 C 269.888 152.466,269.888 146.753,269.824 143.262 C 269.759 139.771,269.706 142.627,269.706 149.609 " stroke="none" fill="#4c6cc4" fill-rule="evenodd"></path><path id="path4" d="" stroke="none" fill="#809cd2" fill-rule="evenodd"></path><path id="path5" d="M274.121 162.399 C 275.464 162.475,277.661 162.475,279.004 162.399 C 280.347 162.322,279.248 162.260,276.563 162.260 C 273.877 162.260,272.778 162.322,274.121 162.399 M304.013 238.281 C 304.013 239.248,304.089 239.644,304.182 239.160 C 304.275 238.677,304.275 237.886,304.182 237.402 C 304.089 236.919,304.013 237.314,304.013 238.281 M194.043 337.776 C 194.526 337.869,195.317 337.869,195.801 337.776 C 196.284 337.683,195.889 337.606,194.922 337.606 C 193.955 337.606,193.560 337.683,194.043 337.776 M204.590 337.776 C 205.073 337.869,205.864 337.869,206.348 337.776 C 206.831 337.683,206.436 337.606,205.469 337.606 C 204.502 337.606,204.106 337.683,204.590 337.776 " stroke="none" fill="#8c9ccc" fill-rule="evenodd"></path><path id="path6" d="M269.670 133.789 C 269.669 135.723,269.735 136.563,269.817 135.656 C 269.899 134.750,269.900 133.168,269.819 132.141 C 269.738 131.114,269.671 131.855,269.670 133.789 " stroke="none" fill="#3c62ba" fill-rule="evenodd"></path><path id="path7" d="" stroke="none" fill="#4c74c4" fill-rule="evenodd"></path><path id="path8" d="" stroke="none" fill="#2c5cb4" fill-rule="evenodd"></path></g></svg>